<?xml version="1.0" encoding="UTF-8"?>
<svg width="395px" height="108px" viewBox="0 0 395 108" version="1.1" xmlns="http://www.w3.org/2000/svg" xmlns:xlink="http://www.w3.org/1999/xlink">
    <!-- Generator: Sketch 43.1 (39012) - http://www.bohemiancoding.com/sketch -->
    <title>CapitaliseMe</title>
    <desc>Created with Sketch.</desc>
    <defs></defs>
    <g id="Symbols" stroke="none" stroke-width="1" fill="none" fill-rule="evenodd">
        <g id="CapitaliseMe">
            <path d="M54.2726955,65.0000114 C53.2726965,68.6363716 50.6363354,72.2727318 44.0908871,72.2727318 C34.4545326,72.2727318 30.4545364,63.7272854 30.4545364,53.7272949 C30.4545364,43.0000324 35.3636227,34.9091311 44.0908871,34.9091311 C49.6363363,34.9091311 53.5454235,38.1818552 54.4545135,42.4545784 L60.8181438,42.4545784 C59.4545088,35.4545851 53.6363325,29.8182268 44.0908871,29.8182268 C31.6363535,29.8182268 24.9999962,39.6363993 24.9999962,53.7272949 C24.9999962,67.8181906 31.6363535,77.636363 44.0908871,77.636363 C53.8181505,77.636363 59.3635998,71.9090958 60.6363258,65.0000114 L54.2726955,65.0000114 Z M87.4508846,77 L87.4508846,72.2727318 L87.1781576,72.2727318 C86.0872496,74.5454569 82.4508894,77.818181 76.8145311,77.818181 C69.8145378,77.818181 64.9054516,73.8181849 64.9054516,67.8181906 C64.9054516,59.4545622 72.723626,56.5454741 84.6327055,56.5454741 L87.4508846,56.5454741 L87.4508846,55.909111 C87.4508846,49.0000267 83.8145245,46.3636656 79.3599833,46.3636656 C75.2690781,46.3636656 72.0872629,48.6363907 70.3599919,52.0909328 L65.3599966,50.1818438 C68.1781757,42.8182144 75.3599871,41.6363974 79.2690743,41.6363974 C86.2690676,41.6363974 92.8145159,44.8182125 92.8145159,56.9091101 L92.8145159,77 L87.4508846,77 Z M87.4508846,61.0909243 L84.6327055,61.0909243 C76.4508951,61.0909243 70.2690828,62.0909233 70.2690828,67.8181906 C70.2690828,72.1818228 74.17817,73.0000038 76.6327131,73.0000038 C83.0872524,73.0000038 87.4508846,69.0000076 87.4508846,64.6363754 L87.4508846,61.0909243 Z M99.6290864,90.0908966 L99.6290864,42.0909424 L104.538173,42.0909424 L104.901809,46.4545746 L105.538172,46.4545746 C107.379079,43.772759 110.424531,41.6363974 115.265435,41.6363974 C124.629063,41.6363974 130.810875,48.6363907 130.810875,59.5454712 C130.810875,70.5454607 124.629063,77.727272 115.265435,77.727272 C110.26544,77.727272 107.174534,75.5227287 105.356354,72.7272768 L104.992718,72.7272768 L104.992718,90.0908966 L99.6290864,90.0908966 Z M105.265445,65.3636475 C106.356353,69.9090977 110.901803,72.9090948 115.265435,72.9090948 C121.083611,72.9090948 125.447244,67.6363726 125.447244,59.5454712 C125.447244,51.4545698 121.083611,46.4545746 115.174526,46.4545746 C110.629076,46.4545746 106.62908,49.4545717 105.356354,53.7272949 C104.674536,56.090929 104.629082,58.6818357 104.629082,59.5454712 C104.629082,60.4545612 104.674536,63.1818314 105.265445,65.3636475 Z M138.625448,37.0909472 C140.989082,37.0909472 142.443626,35.4545851 142.443626,33.454587 C142.443626,31.6364069 140.989082,29.8182268 138.625448,29.8182268 C136.261813,29.8182268 134.807269,31.6364069 134.807269,33.454587 C134.807269,35.4545851 136.261813,37.0909472 138.625448,37.0909472 Z M141.352718,42.0909424 L135.989086,42.0909424 L135.989086,77 L141.352718,77 L141.352718,42.0909424 Z M163.349072,42.0909424 L155.894534,42.0909424 L155.894534,34.636404 L150.530902,34.636404 L150.530902,42.0909424 L144.894544,42.0909424 L144.894544,47.0909376 L150.530902,47.0909376 L150.530902,68.4545536 C150.530902,74.5454569 155.803625,77.272727 159.985439,77.272727 C162.167255,77.272727 162.530891,77.181818 163.439981,76.909091 L163.439981,72.0000048 C162.530891,72.0909138 162.258164,72.1818228 161.349074,72.1818228 C159.349076,72.1818228 155.894534,72.0909138 155.894534,67.0000095 L155.894534,47.0909376 L163.349072,47.0909376 L163.349072,42.0909424 Z M188.981794,77 L188.981794,72.2727318 L188.709067,72.2727318 C187.618159,74.5454569 183.981799,77.818181 178.34544,77.818181 C171.345447,77.818181 166.436361,73.8181849 166.436361,67.8181906 C166.436361,59.4545622 174.254535,56.5454741 186.163615,56.5454741 L188.981794,56.5454741 L188.981794,55.909111 C188.981794,49.0000267 185.345434,46.3636656 180.890892,46.3636656 C176.799987,46.3636656 173.618172,48.6363907 171.890901,52.0909328 L166.890906,50.1818438 C169.709085,42.8182144 176.890896,41.6363974 180.799983,41.6363974 C187.799977,41.6363974 194.345425,44.8182125 194.345425,56.9091101 L194.345425,77 L188.981794,77 Z M188.981794,61.0909243 L186.163615,61.0909243 C177.981804,61.0909243 171.799992,62.0909233 171.799992,67.8181906 C171.799992,72.1818228 175.709079,73.0000038 178.163622,73.0000038 C184.618162,73.0000038 188.981794,69.0000076 188.981794,64.6363754 L188.981794,61.0909243 Z M206.523627,30.4545898 L201.159995,30.4545898 L201.159995,77 L206.523627,77 L206.523627,30.4545898 Z M215.974538,37.0909472 C218.338173,37.0909472 219.792717,35.4545851 219.792717,33.454587 C219.792717,31.6364069 218.338173,29.8182268 215.974538,29.8182268 C213.610904,29.8182268 212.15636,31.6364069 212.15636,33.454587 C212.15636,35.4545851 213.610904,37.0909472 215.974538,37.0909472 Z M218.701809,42.0909424 L213.338177,42.0909424 L213.338177,77 L218.701809,77 L218.701809,42.0909424 Z M224.607269,51.7272968 C224.607269,56.5454741 227.516357,59.7272892 233.789079,61.2727423 L239.607255,62.7272863 C243.152706,63.6363764 244.970886,65.4545565 244.970886,67.8181906 C244.970886,70.9090967 241.516344,73.0000038 236.970894,73.0000038 C232.69817,73.0000038 229.879991,70.8181877 228.516356,68.7272806 L224.334542,71.7272778 C226.33454,75.5454559 230.87999,77.727272 236.789076,77.727272 C245.425431,77.727272 250.516335,73.4545488 250.516335,67.3636456 C250.516335,62.5454683 247.425429,59.4545622 241.061799,57.9091091 L235.879986,56.6363831 C231.879989,55.636384 230.061809,53.8182039 230.061809,51.4545698 C230.061809,48.4545727 233.152715,46.2727566 237.152712,46.2727566 C241.425435,46.2727566 244.152705,48.4545727 245.607249,50.6363888 L249.516336,47.8182096 C247.516338,44.0909405 243.061797,41.6363974 237.152712,41.6363974 C230.061809,41.6363974 224.607269,46.0909386 224.607269,51.7272968 Z M270.467255,77.727272 C260.467264,77.727272 254.46727,70.2727337 254.46727,59.5454712 C254.46727,49.0909357 260.558173,41.6363974 269.9218,41.6363974 C278.649065,41.6363974 285.012695,46.7273016 285.012695,59.5454712 L285.012695,61.8181963 L259.944537,61.8181963 C260.649082,68.4772809 264.489987,72.9090948 270.467255,72.9090948 C274.739978,72.9090948 277.649066,70.9090967 279.10361,67.6363726 L284.012696,69.8181887 C282.012698,74.4545479 277.467248,77.727272 270.467255,77.727272 Z M270.012709,46.4545746 C264.580896,46.4545746 260.717264,50.8182068 259.967265,57.1818371 L279.830882,57.1818371 C279.830882,50.2727528 276.103613,46.4545746 270.012709,46.4545746 Z M292.671814,30.4545898 L292.671814,77 L299.853625,77 L299.853625,43.6591227 L300.217261,43.6591227 L311.989977,76.7727275 L317.830881,76.7727275 L329.671779,43.7045772 L330.058142,43.7045772 L330.058142,77 L337.217226,77 L337.217226,30.4545898 L327.967235,30.4545898 L315.19452,65.59092 L314.649066,65.59092 L301.899078,30.4545898 L292.671814,30.4545898 Z M359.093618,77.7045448 C348.798173,77.7045448 342.661816,70.1363702 342.661816,59.7272892 C342.661816,49.2272992 348.593628,41.6363974 358.343619,41.6363974 C367.389065,41.6363974 373.502695,47.2727556 373.502695,59.2272897 L373.502695,62.2272868 L349.752718,62.2272868 C350.525445,68.0454631 354.025441,71.6363688 359.298163,71.6363688 C363.139069,71.6363688 365.639066,69.9545522 367.275429,66.9772823 L372.525424,70.3863699 C370.502698,74.4772751 365.934521,77.7045448 359.093618,77.7045448 Z M358.366346,47.6591189 C353.639078,47.6591189 350.570899,51.3636608 349.798172,56.8636556 L366.729975,56.8636556 C366.729975,51.3182063 363.70725,47.6591189 358.366346,47.6591189 Z" fill="#000000"></path>
            <rect id="Rectangle-2" stroke="#000000" stroke-width="4" x="2" y="2" width="391" height="104" rx="8"></rect>
            <rect id="Rectangle-2-Copy" stroke="#00D902" stroke-width="4" x="6" y="6" width="383" height="96" rx="4"></rect>
        </g>
    </g>
</svg>